<svg width="600" height="600" viewBox="0 0 600 600" fill="none" xmlns="http://www.w3.org/2000/svg">
<rect width="600" height="600" fill="white"/>
<path d="M76.096 215.856C73.024 215.856 70.08 215.515 67.264 214.832C64.448 214.235 62.0587 213.296 60.096 212.016L65.472 197.552C67.776 199.173 70.592 199.984 73.92 199.984C76.3947 199.984 78.3573 199.131 79.808 197.424C81.344 195.803 82.112 193.328 82.112 190V121.136H102.08V189.872C102.08 197.808 99.8187 204.123 95.296 208.816C90.7733 213.509 84.3733 215.856 76.096 215.856ZM92.096 111.536C88.4267 111.536 85.44 110.469 83.136 108.336C80.832 106.203 79.68 103.557 79.68 100.4C79.68 97.2427 80.832 94.5973 83.136 92.464C85.44 90.3307 88.4267 89.264 92.096 89.264C95.7653 89.264 98.752 90.288 101.056 92.336C103.36 94.2987 104.512 96.8587 104.512 100.016C104.512 103.344 103.36 106.117 101.056 108.336C98.8373 110.469 95.8507 111.536 92.096 111.536ZM149.522 191.024C143.805 191.024 138.685 189.915 134.162 187.696C129.725 185.477 126.269 182.107 123.794 177.584C121.319 172.976 120.082 167.131 120.082 160.048V121.136H140.05V157.104C140.05 162.821 141.245 167.045 143.634 169.776C146.109 172.421 149.565 173.744 154.002 173.744C157.074 173.744 159.805 173.104 162.194 171.824C164.583 170.459 166.461 168.411 167.826 165.68C169.191 162.864 169.874 159.365 169.874 155.184V121.136H189.842V190H170.898V171.056L174.354 176.56C172.05 181.339 168.637 184.965 164.114 187.44C159.677 189.829 154.813 191.024 149.522 191.024ZM208.341 190V121.136H227.413V139.952L223.829 134.448C226.218 129.755 229.589 126.213 233.941 123.824C238.378 121.349 243.413 120.112 249.045 120.112C255.36 120.112 260.864 121.733 265.557 124.976C270.336 128.133 273.493 132.997 275.029 139.568L267.989 137.648C270.293 132.272 273.962 128.005 278.997 124.848C284.117 121.691 289.962 120.112 296.533 120.112C301.994 120.112 306.816 121.221 310.997 123.44C315.264 125.573 318.592 128.901 320.981 133.424C323.456 137.861 324.693 143.579 324.693 150.576V190H304.725V153.648C304.725 148.101 303.573 144.005 301.269 141.36C298.965 138.715 295.722 137.392 291.541 137.392C288.64 137.392 286.037 138.075 283.733 139.44C281.429 140.72 279.637 142.683 278.357 145.328C277.077 147.973 276.437 151.344 276.437 155.44V190H256.469V153.648C256.469 148.101 255.317 144.005 253.013 141.36C250.794 138.715 247.594 137.392 243.413 137.392C240.512 137.392 237.909 138.075 235.605 139.44C233.301 140.72 231.509 142.683 230.229 145.328C228.949 147.973 228.309 151.344 228.309 155.44V190H208.341ZM383.295 191.024C377.492 191.024 372.415 189.744 368.063 187.184C363.711 184.624 360.298 180.741 357.823 175.536C355.434 170.245 354.239 163.589 354.239 155.568C354.239 147.461 355.391 140.805 357.695 135.6C359.999 130.395 363.327 126.512 367.679 123.952C372.031 121.392 377.236 120.112 383.295 120.112C389.78 120.112 395.583 121.605 400.703 124.592C405.908 127.493 410.004 131.589 412.991 136.88C416.063 142.171 417.599 148.4 417.599 155.568C417.599 162.821 416.063 169.093 412.991 174.384C410.004 179.675 405.908 183.771 400.703 186.672C395.583 189.573 389.78 191.024 383.295 191.024ZM342.591 214.832V121.136H361.663V135.216L361.279 155.696L362.559 176.048V214.832H342.591ZM379.839 174.64C383.167 174.64 386.111 173.872 388.671 172.336C391.316 170.8 393.407 168.624 394.943 165.808C396.564 162.907 397.375 159.493 397.375 155.568C397.375 151.557 396.564 148.144 394.943 145.328C393.407 142.512 391.316 140.336 388.671 138.8C386.111 137.264 383.167 136.496 379.839 136.496C376.511 136.496 373.524 137.264 370.879 138.8C368.234 140.336 366.143 142.512 364.607 145.328C363.071 148.144 362.303 151.557 362.303 155.568C362.303 159.493 363.071 162.907 364.607 165.808C366.143 168.624 368.234 170.8 370.879 172.336C373.524 173.872 376.511 174.64 379.839 174.64ZM104.384 347.024C98.496 347.024 92.8213 346.341 87.36 344.976C81.984 343.525 77.7173 341.733 74.56 339.6L81.216 325.264C84.3733 327.227 88.0853 328.848 92.352 330.128C96.704 331.323 100.971 331.92 105.152 331.92C109.76 331.92 113.003 331.365 114.88 330.256C116.843 329.147 117.824 327.611 117.824 325.648C117.824 324.027 117.056 322.832 115.52 322.064C114.069 321.211 112.107 320.571 109.632 320.144C107.157 319.717 104.427 319.291 101.44 318.864C98.5387 318.437 95.5947 317.883 92.608 317.2C89.6213 316.432 86.8907 315.323 84.416 313.872C81.9413 312.421 79.936 310.459 78.4 307.984C76.9493 305.509 76.224 302.309 76.224 298.384C76.224 294.032 77.4613 290.192 79.936 286.864C82.496 283.536 86.1653 280.933 90.944 279.056C95.7227 277.093 101.44 276.112 108.096 276.112C112.789 276.112 117.568 276.624 122.432 277.648C127.296 278.672 131.349 280.165 134.592 282.128L127.936 296.336C124.608 294.373 121.237 293.051 117.824 292.368C114.496 291.6 111.253 291.216 108.096 291.216C103.659 291.216 100.416 291.813 98.368 293.008C96.32 294.203 95.296 295.739 95.296 297.616C95.296 299.323 96.0213 300.603 97.472 301.456C99.008 302.309 101.013 302.992 103.488 303.504C105.963 304.016 108.651 304.485 111.552 304.912C114.539 305.253 117.525 305.808 120.512 306.576C123.499 307.344 126.187 308.453 128.576 309.904C131.051 311.269 133.056 313.189 134.592 315.664C136.128 318.053 136.896 321.211 136.896 325.136C136.896 329.403 135.616 333.2 133.056 336.528C130.496 339.771 126.784 342.331 121.92 344.208C117.141 346.085 111.296 347.024 104.384 347.024ZM149.216 346V251.024H169.184V296.208L164.704 290.448C167.179 285.84 170.72 282.299 175.328 279.824C179.936 277.349 185.184 276.112 191.072 276.112C196.533 276.112 201.397 277.221 205.664 279.44C210.016 281.573 213.429 284.901 215.904 289.424C218.379 293.861 219.616 299.579 219.616 306.576V346H199.648V309.648C199.648 304.101 198.411 300.005 195.936 297.36C193.547 294.715 190.133 293.392 185.696 293.392C182.539 293.392 179.68 294.075 177.12 295.44C174.645 296.72 172.683 298.725 171.232 301.456C169.867 304.187 169.184 307.685 169.184 311.952V346H149.216ZM237.716 346V277.136H257.684V346H237.716ZM247.7 267.536C244.031 267.536 241.044 266.469 238.74 264.336C236.436 262.203 235.284 259.557 235.284 256.4C235.284 253.243 236.436 250.597 238.74 248.464C241.044 246.331 244.031 245.264 247.7 245.264C251.369 245.264 254.356 246.288 256.66 248.336C258.964 250.299 260.116 252.859 260.116 256.016C260.116 259.344 258.964 262.117 256.66 264.336C254.441 266.469 251.455 267.536 247.7 267.536ZM316.92 347.024C311.117 347.024 306.04 345.744 301.688 343.184C297.336 340.624 293.923 336.741 291.448 331.536C289.059 326.245 287.864 319.589 287.864 311.568C287.864 303.461 289.016 296.805 291.32 291.6C293.624 286.395 296.952 282.512 301.304 279.952C305.656 277.392 310.861 276.112 316.92 276.112C323.405 276.112 329.208 277.605 334.328 280.592C339.533 283.493 343.629 287.589 346.616 292.88C349.688 298.171 351.224 304.4 351.224 311.568C351.224 318.821 349.688 325.093 346.616 330.384C343.629 335.675 339.533 339.771 334.328 342.672C329.208 345.573 323.405 347.024 316.92 347.024ZM276.216 370.832V277.136H295.288V291.216L294.904 311.696L296.184 332.048V370.832H276.216ZM313.464 330.64C316.792 330.64 319.736 329.872 322.296 328.336C324.941 326.8 327.032 324.624 328.568 321.808C330.189 318.907 331 315.493 331 311.568C331 307.557 330.189 304.144 328.568 301.328C327.032 298.512 324.941 296.336 322.296 294.8C319.736 293.264 316.792 292.496 313.464 292.496C310.136 292.496 307.149 293.264 304.504 294.8C301.859 296.336 299.768 298.512 298.232 301.328C296.696 304.144 295.928 307.557 295.928 311.568C295.928 315.493 296.696 318.907 298.232 321.808C299.768 324.624 301.859 326.8 304.504 328.336C307.149 329.872 310.136 330.64 313.464 330.64Z" fill="black"/>
<path d="M88.768 503.024C85.3547 503.024 82.4107 501.872 79.936 499.568C77.5467 497.179 76.352 494.149 76.352 490.48C76.352 486.811 77.5467 483.867 79.936 481.648C82.4107 479.344 85.3547 478.192 88.768 478.192C92.2667 478.192 95.2107 479.344 97.6 481.648C99.9893 483.867 101.184 486.811 101.184 490.48C101.184 494.149 99.9893 497.179 97.6 499.568C95.2107 501.872 92.2667 503.024 88.768 503.024ZM114.716 502V433.136H133.788V451.952L130.204 446.448C132.593 441.755 135.964 438.213 140.316 435.824C144.753 433.349 149.788 432.112 155.42 432.112C161.735 432.112 167.239 433.733 171.932 436.976C176.711 440.133 179.868 444.997 181.404 451.568L174.364 449.648C176.668 444.272 180.337 440.005 185.372 436.848C190.492 433.691 196.337 432.112 202.908 432.112C208.369 432.112 213.191 433.221 217.372 435.44C221.639 437.573 224.967 440.901 227.356 445.424C229.831 449.861 231.068 455.579 231.068 462.576V502H211.1V465.648C211.1 460.101 209.948 456.005 207.644 453.36C205.34 450.715 202.097 449.392 197.916 449.392C195.015 449.392 192.412 450.075 190.108 451.44C187.804 452.72 186.012 454.683 184.732 457.328C183.452 459.973 182.812 463.344 182.812 467.44V502H162.844V465.648C162.844 460.101 161.692 456.005 159.388 453.36C157.169 450.715 153.969 449.392 149.788 449.392C146.887 449.392 144.284 450.075 141.98 451.44C139.676 452.72 137.884 454.683 136.604 457.328C135.324 459.973 134.684 463.344 134.684 467.44V502H114.716ZM283.642 503.024C275.791 503.024 268.879 501.488 262.906 498.416C257.018 495.344 252.453 491.163 249.21 485.872C245.967 480.496 244.346 474.395 244.346 467.568C244.346 460.656 245.925 454.555 249.082 449.264C252.325 443.888 256.719 439.707 262.266 436.72C267.813 433.648 274.085 432.112 281.082 432.112C287.823 432.112 293.882 433.563 299.258 436.464C304.719 439.28 309.029 443.376 312.186 448.752C315.343 454.043 316.922 460.4 316.922 467.824C316.922 468.592 316.879 469.488 316.794 470.512C316.709 471.451 316.623 472.347 316.538 473.2H260.602V461.552H306.042L298.362 465.008C298.362 461.424 297.637 458.309 296.186 455.664C294.735 453.019 292.73 450.971 290.17 449.52C287.61 447.984 284.623 447.216 281.21 447.216C277.797 447.216 274.767 447.984 272.122 449.52C269.562 450.971 267.557 453.061 266.106 455.792C264.655 458.437 263.93 461.595 263.93 465.264V468.336C263.93 472.091 264.741 475.419 266.362 478.32C268.069 481.136 270.415 483.312 273.402 484.848C276.474 486.299 280.058 487.024 284.154 487.024C287.823 487.024 291.023 486.469 293.754 485.36C296.57 484.251 299.13 482.587 301.434 480.368L312.058 491.888C308.901 495.472 304.933 498.245 300.154 500.208C295.375 502.085 289.871 503.024 283.642 503.024ZM359.784 503.024C353.299 503.024 347.453 501.573 342.248 498.672C337.043 495.685 332.904 491.547 329.832 486.256C326.845 480.965 325.352 474.736 325.352 467.568C325.352 460.315 326.845 454.043 329.832 448.752C332.904 443.461 337.043 439.365 342.248 436.464C347.453 433.563 353.299 432.112 359.784 432.112C365.587 432.112 370.664 433.392 375.016 435.952C379.368 438.512 382.739 442.395 385.128 447.6C387.517 452.805 388.712 459.461 388.712 467.568C388.712 475.589 387.56 482.245 385.256 487.536C382.952 492.741 379.624 496.624 375.272 499.184C371.005 501.744 365.843 503.024 359.784 503.024ZM363.24 486.64C366.483 486.64 369.427 485.872 372.072 484.336C374.717 482.8 376.808 480.624 378.344 477.808C379.965 474.907 380.776 471.493 380.776 467.568C380.776 463.557 379.965 460.144 378.344 457.328C376.808 454.512 374.717 452.336 372.072 450.8C369.427 449.264 366.483 448.496 363.24 448.496C359.912 448.496 356.925 449.264 354.28 450.8C351.635 452.336 349.501 454.512 347.88 457.328C346.344 460.144 345.576 463.557 345.576 467.568C345.576 471.493 346.344 474.907 347.88 477.808C349.501 480.624 351.635 482.8 354.28 484.336C356.925 485.872 359.912 486.64 363.24 486.64ZM381.288 502V487.92L381.672 467.44L380.392 447.088V407.024H400.36V502H381.288ZM418.841 502V433.136H438.809V502H418.841ZM428.825 423.536C425.156 423.536 422.169 422.469 419.865 420.336C417.561 418.203 416.409 415.557 416.409 412.4C416.409 409.243 417.561 406.597 419.865 404.464C422.169 402.331 425.156 401.264 428.825 401.264C432.494 401.264 435.481 402.288 437.785 404.336C440.089 406.299 441.241 408.859 441.241 412.016C441.241 415.344 440.089 418.117 437.785 420.336C435.566 422.469 432.58 423.536 428.825 423.536ZM499.581 502V488.56L498.301 485.616V461.552C498.301 457.285 496.978 453.957 494.333 451.568C491.773 449.179 487.805 447.984 482.429 447.984C478.76 447.984 475.133 448.581 471.549 449.776C468.05 450.885 465.064 452.421 462.589 454.384L455.421 440.432C459.176 437.787 463.698 435.739 468.989 434.288C474.28 432.837 479.656 432.112 485.117 432.112C495.613 432.112 503.762 434.587 509.565 439.536C515.368 444.485 518.269 452.208 518.269 462.704V502H499.581ZM478.589 503.024C473.213 503.024 468.605 502.128 464.765 500.336C460.925 498.459 457.981 495.941 455.933 492.784C453.885 489.627 452.861 486.085 452.861 482.16C452.861 478.064 453.842 474.48 455.805 471.408C457.853 468.336 461.053 465.947 465.405 464.24C469.757 462.448 475.432 461.552 482.429 461.552H500.733V473.2H484.605C479.912 473.2 476.669 473.968 474.877 475.504C473.17 477.04 472.317 478.96 472.317 481.264C472.317 483.824 473.298 485.872 475.261 487.408C477.309 488.859 480.082 489.584 483.581 489.584C486.909 489.584 489.896 488.816 492.541 487.28C495.186 485.659 497.106 483.312 498.301 480.24L501.373 489.456C499.922 493.893 497.277 497.264 493.437 499.568C489.597 501.872 484.648 503.024 478.589 503.024Z" fill="#4A7DFF"/>
</svg>
